# xmcd CD database file
#
# Track frame offsets:
#	150
#	12005
#	25117
#	36922
#
# Disc length: 662 seconds
#
# Revision: 0
# Processed by: cddbd v1.5.1PL0 Copyright (c) Steve Scherf et al.
# Submitted via: CDex 1.51
#
DISCID=22029404
DTITLE=Natural Punch Drunker - スタンドバイミー
DYEAR=2004
DGENRE=JPop
TTITLE0=スタンドバイミー
TTITLE1=スワロウ
TTITLE2=スタンドバイミー (Instrumental)
TTITLE3=スワロウ (Instrumental)
EXTD=YEAR: 2004
EXTT0=
EXTT1=
EXTT2=
EXTT3=
PLAYORDER=
